<svg id="instagram" xmlns="http://www.w3.org/2000/svg" width="15" height="15" viewBox="0 0 15 15">
  <g id="Сгруппировать_64" data-name="Сгруппировать 64" transform="translate(0 0)">
    <g id="Сгруппировать_63" data-name="Сгруппировать 63">
      <path id="Контур_105" data-name="Контур 105" d="M10.313,0H4.687A4.688,4.688,0,0,0,0,4.687v5.625A4.688,4.688,0,0,0,4.687,15h5.625A4.688,4.688,0,0,0,15,10.313V4.687A4.688,4.688,0,0,0,10.313,0Zm3.281,10.313a3.285,3.285,0,0,1-3.281,3.281H4.687a3.285,3.285,0,0,1-3.281-3.281V4.687A3.285,3.285,0,0,1,4.687,1.406h5.625a3.285,3.285,0,0,1,3.281,3.281Z" transform="translate(0 0)" fill="#202126"/>
    </g>
  </g>
  <g id="Сгруппировать_66" data-name="Сгруппировать 66" transform="translate(3.75 3.75)">
    <g id="Сгруппировать_65" data-name="Сгруппировать 65">
      <path id="Контур_106" data-name="Контур 106" d="M131.75,128a3.75,3.75,0,1,0,3.75,3.75A3.75,3.75,0,0,0,131.75,128Zm0,6.094a2.344,2.344,0,1,1,2.344-2.344A2.347,2.347,0,0,1,131.75,134.094Z" transform="translate(-128 -128)" fill="#202126"/>
    </g>
  </g>
  <g id="Сгруппировать_68" data-name="Сгруппировать 68" transform="translate(11.032 2.969)">
    <g id="Сгруппировать_67" data-name="Сгруппировать 67">
      <circle id="Эллипс_49" data-name="Эллипс 49" cx="0.5" cy="0.5" r="0.5" fill="#202126"/>
    </g>
  </g>
</svg>
